<svg width="567" height="396" viewBox="0 0 567 396" fill="none" xmlns="http://www.w3.org/2000/svg">
<path d="M314.791 254.731C309.939 362.814 247.45 361.436 164.843 362.814C89.1899 364.076 14.2671 383.792 15.6074 254.731C16.4028 178.097 82.5812 115.966 165.199 115.966C247.818 115.966 318.229 178.17 314.791 254.731Z" fill="#F5F5F5"/>
<path d="M560.213 225.577C553.869 362.751 480.086 364.419 367.726 362.013C266.102 359.837 167.314 389.372 169.066 225.577C170.106 128.317 256.627 49.464 364.639 49.464C418.295 49.464 468.013 68.9458 503.913 100.464C540.283 132.394 562.472 176.678 560.213 225.577Z" fill="#F5F5F5"/>
<path d="M206.219 113.05C206.219 113.05 205.439 116.556 200.801 115.88C192.885 114.726 178.287 107.813 166.399 111.756C157.07 114.852 173.272 74.5409 206.219 113.05Z" fill="#F5F5F5"/>
<path d="M205.495 106.125C204.956 108.009 207.98 112.254 209.269 110.698C212.193 107.162 213.461 103.022 219.915 100.345C227.013 97.4005 208.595 90.3943 205.495 106.125Z" fill="#F5F5F5"/>
<path d="M505.745 354.421C505.745 354.421 509.464 358.606 519.169 357.848C526.217 357.299 532.642 328.896 505.745 354.421Z" fill="#F5F5F5"/>
<path d="M520.091 339.158C520.091 339.158 521.953 339.96 527.184 339.552C530.983 339.255 534.586 325.404 520.091 339.158Z" fill="#F5F5F5"/>
<path d="M40.4082 352.704C40.4082 352.704 36.6888 356.888 26.9837 356.132C19.9347 355.58 13.5095 327.178 40.4082 352.704Z" fill="#F5F5F5"/>
<path d="M26.0615 337.442C26.0615 337.442 24.1991 338.244 18.9693 337.834C15.1704 337.539 11.5668 323.687 26.0615 337.442Z" fill="#F5F5F5"/>
<g opacity="0.6">
<path d="M294.19 278.2C294.19 280.801 291.219 282.911 287.553 282.911H230.884C227.218 282.911 224.246 280.801 224.246 278.2C224.246 278.2 227.217 235.958 230.884 235.958H287.553C291.219 235.958 294.19 278.2 294.19 278.2Z" fill="#C6CAD0"/>
</g>
<path d="M291.043 277.546C291.043 277.82 288.339 278.043 285.003 278.043H233.435C230.099 278.043 227.395 277.82 227.395 277.546C227.395 277.546 230.099 273.091 233.435 273.091H285.003C288.34 273.091 291.043 277.546 291.043 277.546Z" fill="#C7CBD1"/>
<path d="M283.889 282.848L283.112 282.974L285.928 300.271C286.185 300.221 286.444 300.176 286.702 300.125L283.889 282.848Z" fill="#ADAFB2"/>
<path d="M275.611 282.808L274.851 283.016L279.865 301.378C280.125 301.332 280.385 301.288 280.644 301.243L275.611 282.808Z" fill="#ADAFB2"/>
<path d="M285.927 300.271L294.115 350.575L280.644 301.242C280.385 301.287 280.125 301.331 279.865 301.377L295.326 357.997L296.094 357.831L286.701 300.126C286.443 300.176 286.185 300.221 285.927 300.271Z" fill="#C6CAD0"/>
<path d="M236.02 307.735L224.323 350.575L231.183 308.426C230.911 308.467 230.638 308.507 230.366 308.547L222.343 357.831L223.111 357.997L236.869 307.616C236.586 307.655 236.303 307.695 236.02 307.735Z" fill="#C6CAD0"/>
<path d="M235.326 282.974L234.549 282.848L230.366 308.547C230.638 308.507 230.911 308.467 231.183 308.427L235.326 282.974Z" fill="#ADAFB2"/>
<path d="M243.586 283.015L242.826 282.807L236.019 307.735C236.303 307.695 236.585 307.654 236.868 307.616L243.586 283.015Z" fill="#ADAFB2"/>
<g opacity="0.6">
<path d="M288.694 210.625H514.35V215.619H288.694V210.625Z" fill="#C6CAD0"/>
</g>
<path d="M288.693 44.0252H496.816V210.625H288.693V44.0252Z" fill="white"/>
<path d="M335.254 48.595C343.836 56.207 358.14 85.702 339.068 88.5557C354.326 101.876 368.63 121.857 336.207 123.76C342.883 127.566 360.047 137.08 360.047 144.691C360.047 153.254 352.418 154.205 344.79 151.352C354.325 155.158 352.419 164.672 343.836 169.429C337.16 174.187 329.532 169.429 322.856 167.526C319.041 166.575 315.227 161.817 311.413 161.817C307.599 161.817 304.737 169.429 301.877 168.478C292.341 165.623 294.248 158.964 289.48 151.352C278.037 135.178 263.733 124.711 272.315 99.9737C277.083 86.6535 329.532 21.9553 338.115 49.5465" fill="#F5F5F5"/>
<g opacity="0.6">
<path d="M492.635 215.62V216.71L280.644 225.273V215.62H492.635Z" fill="#E6E8EA"/>
</g>
<path d="M446.828 75.9819C438.73 83.1633 425.234 110.993 443.229 113.686C428.834 126.254 415.337 145.106 445.929 146.901C439.63 150.492 423.436 159.47 423.436 166.651C423.436 174.731 430.634 175.629 437.831 172.935C428.834 176.526 430.633 185.504 438.731 189.992C445.03 194.48 452.228 189.992 458.527 188.196C462.125 187.298 465.724 182.81 469.323 182.81C472.922 182.81 475.622 189.992 478.321 189.094C487.319 186.401 485.52 180.118 490.019 172.935C500.816 157.674 514.312 147.799 506.214 124.458C501.715 111.89 452.228 50.8452 444.13 76.8792" fill="#F5F5F5"/>
<path d="M291.925 148.655L268.783 147.725L256.074 255.56L310.15 252.568L291.925 148.655Z" fill="#E6E8EA"/>
<path d="M492.819 145.595L515.961 144.675L528.671 251.178L474.595 248.223L492.819 145.595Z" fill="#E6E8EA"/>
<g opacity="0.6">
<path d="M534.847 42.3595C534.847 43.9867 533.789 45.306 532.485 45.306H255.589C254.284 45.306 253.226 43.9867 253.226 42.3595C253.226 40.7323 254.284 39.4131 255.589 39.4131H532.485C533.789 39.4131 534.847 40.7323 534.847 42.3595Z" fill="#C6CAD0"/>
</g>
<path d="M267.777 33.7166H351.069C351.069 33.7166 306.087 148.038 286.71 150.985C267.333 153.931 268.056 147.645 268.056 147.645L267.777 33.7166Z" fill="#E6E8EA"/>
<path d="M517.35 33.7166H434.058C434.058 33.7166 479.04 148.038 498.417 150.985C517.795 153.931 517.072 147.645 517.072 147.645L517.35 33.7166Z" fill="#E6E8EA"/>
<g opacity="0.6">
<path d="M386.521 45.3059H391.818V210.917H386.521V45.3059Z" fill="#C6CAD0"/>
</g>
<g opacity="0.5">
<path d="M336.115 45.3059C336.115 45.3059 309.149 119.238 283.26 140.452C283.26 140.452 304.292 109.563 309.423 99.2021C314.554 88.8417 336.115 45.3059 336.115 45.3059Z" fill="#C7CBD1"/>
</g>
<g opacity="0.5">
<path d="M320.824 53.1128C320.824 53.1128 300.462 108.941 280.911 124.96C280.911 124.96 296.793 101.634 300.667 93.8113C304.543 85.988 320.824 53.1128 320.824 53.1128Z" fill="#C7CBD1"/>
</g>
<g opacity="0.5">
<path d="M447.93 45.3059C447.93 45.3059 474.896 119.238 500.785 140.452C500.785 140.452 479.754 109.563 474.622 99.2021C469.491 88.8417 447.93 45.3059 447.93 45.3059Z" fill="#C7CBD1"/>
</g>
<g opacity="0.5">
<path d="M463.221 53.1128C463.221 53.1128 483.583 108.941 503.134 124.96C503.134 124.96 487.252 101.634 483.378 93.8113C479.502 85.988 463.221 53.1128 463.221 53.1128Z" fill="#C7CBD1"/>
</g>
<path d="M517.335 149.948C517.626 151.044 516.834 152.203 515.555 152.474C507.885 154.099 499.956 154.099 492.285 152.474C491.006 152.203 490.214 151.044 490.505 149.948C490.797 148.851 491.972 148.209 493.141 148.456C500.247 149.962 507.593 149.962 514.7 148.456C515.868 148.209 517.042 148.851 517.335 149.948Z" fill="#C7CBD1"/>
<path d="M267.409 150.671C267.118 151.767 267.911 152.926 269.19 153.197C276.86 154.822 284.788 154.822 292.459 153.197C293.738 152.926 294.531 151.767 294.239 150.671C293.948 149.574 292.773 148.932 291.603 149.178C284.497 150.685 277.151 150.685 270.045 149.178C268.877 148.932 267.701 149.574 267.409 150.671Z" fill="#C7CBD1"/>
<path d="M494.55 157.143L485.887 218.325L490.445 219.67L494.55 157.143Z" fill="#C7CBD1"/>
<path d="M500.759 160.662L494.523 231.513L497.804 233.072L500.759 160.662Z" fill="#C7CBD1"/>
<path d="M279.673 244.715C279.673 245.78 278.807 246.643 277.739 246.643H230.308C229.241 246.643 228.375 245.78 228.375 244.715C228.375 243.65 229.24 242.786 230.308 242.786H277.739C278.807 242.786 279.673 243.65 279.673 244.715Z" fill="#C7CBD1"/>
<path d="M312.638 229.971C312.638 234.011 309.248 237.286 305.068 237.286H202.966C198.785 237.286 195.395 234.011 195.395 229.971V164.458C195.395 160.418 198.785 157.143 202.966 157.143H305.067C309.248 157.143 312.637 160.418 312.637 164.458V229.971H312.638Z" fill="#E6E8EA"/>
<path d="M264.852 246.643H243.196V209.664C243.196 204.216 246.721 193.875 251.071 193.875H256.977C261.326 193.875 264.852 202.524 264.852 207.97V246.643Z" fill="#F4F4F4"/>
<g opacity="0.6">
<path d="M259.812 209.546C259.812 211.077 259.202 212.546 258.117 213.629C257.031 214.712 255.559 215.321 254.024 215.321C252.489 215.321 251.017 214.712 249.931 213.629C248.846 212.546 248.236 211.077 248.236 209.546C248.236 208.014 248.846 206.545 249.931 205.462C251.017 204.379 252.489 203.771 254.024 203.771C255.559 203.771 257.031 204.379 258.117 205.462C259.202 206.545 259.812 208.014 259.812 209.546V209.546Z" fill="#C6CAD0"/>
</g>
<path d="M221.488 331.879H188.734V316.045H221.488V331.879ZM189.521 331.093H220.701V316.831H189.521V331.093V331.093Z" fill="#C7CBD1"/>
<path d="M198.361 329.392C195.36 329.392 192.919 326.955 192.919 323.962C192.919 320.968 195.36 318.532 198.361 318.532C201.362 318.532 203.804 320.968 203.804 323.962C203.804 326.955 201.362 329.392 198.361 329.392ZM198.361 319.317C195.795 319.317 193.706 321.399 193.706 323.961C193.706 326.522 195.795 328.605 198.361 328.605C200.928 328.605 203.016 326.522 203.016 323.961C203.016 321.399 200.928 319.317 198.361 319.317Z" fill="#C7CBD1"/>
<path d="M212.838 329.392C209.837 329.392 207.396 326.955 207.396 323.962C207.396 320.968 209.837 318.532 212.838 318.532C215.84 318.532 218.281 320.968 218.281 323.962C218.281 326.955 215.84 329.392 212.838 329.392ZM212.838 319.317C210.272 319.317 208.183 321.399 208.183 323.961C208.183 326.522 210.272 328.605 212.838 328.605C215.405 328.605 217.493 326.522 217.493 323.961C217.493 321.399 215.406 319.317 212.838 319.317Z" fill="#C7CBD1"/>
<path d="M253.589 211.981C250.357 213.992 248.995 217.189 248.198 220.794C246.94 226.484 247.126 232.713 247.131 238.506C247.14 250.441 248.649 262.314 249.453 274.207C250.349 287.453 248.886 299.606 241.402 310.917C237.891 316.223 232.996 320.255 227.136 322.686C222.806 324.482 216.549 326.434 212.349 323.537C211.825 323.177 211.334 324.028 211.852 324.386C217.975 328.609 228.947 324.006 234.148 319.981C243.479 312.762 248.793 301.544 250.335 290.036C252.012 277.519 249.548 264.39 248.655 251.882C248.204 245.559 248.02 239.228 248.186 232.89C248.355 226.47 247.818 216.728 254.085 212.831C254.623 212.495 254.129 211.645 253.589 211.981Z" fill="#E6E8EA"/>
<g opacity="0.6">
<path d="M203.744 221.965H205.264V229.233H203.744V221.965Z" fill="#C6CAD0"/>
</g>
<g opacity="0.6">
<path d="M207.162 221.965H208.682V229.233H207.162V221.965Z" fill="#C6CAD0"/>
</g>
<g opacity="0.6">
<path d="M210.581 221.965H212.101V229.233H210.581V221.965Z" fill="#C6CAD0"/>
</g>
<g opacity="0.5">
<path d="M243.196 207.036L243.239 237.286H237.038L243.196 207.036Z" fill="#95A9BC"/>
</g>
<path d="M149.625 246.643H426.038V255.358H149.625V246.643Z" fill="#E6E8EA"/>
<path d="M165.375 255.358H174.191V359.188H165.375V255.358Z" fill="#E6E8EA"/>
<path d="M395.171 255.358H403.987V359.188H395.171V255.358Z" fill="#E6E8EA"/>
<g opacity="0.5">
<path d="M174.191 255.358V258.894L165.375 264.918V255.358H174.191Z" fill="#95A9BC"/>
</g>
<g opacity="0.5">
<path d="M403.987 255.358V258.894L395.171 264.918V255.358H403.987Z" fill="#95A9BC"/>
</g>
<path d="M322.967 195.855C326.178 189.856 323.836 182.358 317.734 179.108C311.633 175.858 304.084 178.086 300.874 184.085C300.871 184.089 300.87 184.093 300.868 184.097L322.96 195.866C322.962 195.862 322.966 195.859 322.967 195.855Z" fill="#C7CBD1"/>
<path d="M354.015 246.296C354.015 244.673 352.561 243.358 350.768 243.358H331.634C329.841 243.358 328.388 244.673 328.388 246.296C328.388 246.415 328.411 246.529 328.426 246.643H353.977C353.991 246.529 354.015 246.415 354.015 246.296Z" fill="#C7CBD1"/>
<path d="M317.232 185.849C317.496 176.568 327.594 172.785 334.982 177.526C338.662 179.887 339.02 183.975 339.231 187.92C339.449 191.986 339.553 196.058 339.648 200.129C339.987 214.533 340.05 228.95 340.02 243.358C340.016 244.879 342.379 244.879 342.382 243.358C342.418 226.014 342.41 208.641 341.747 191.308C341.599 187.451 341.755 183.367 340.076 179.807C338.421 176.297 334.684 174.184 331.032 173.387C322.584 171.544 315.111 177.313 314.869 185.849C314.826 187.37 317.188 187.365 317.232 185.849Z" fill="#C7CBD1"/>
<path d="M322.614 233.35C322.532 233.694 322.198 233.91 321.87 233.832C321.541 233.754 321.34 233.41 321.423 233.066L324.505 220.166C324.587 219.824 324.921 219.608 325.249 219.686C325.578 219.764 325.778 220.107 325.696 220.451L322.614 233.35Z" fill="#E6E8EA"/>
<path d="M318.798 234.684C318.878 235.028 318.674 235.37 318.346 235.446C318.017 235.521 317.684 235.301 317.605 234.958L314.631 222.032C314.553 221.69 314.755 221.348 315.084 221.273C315.413 221.196 315.746 221.416 315.824 221.76L318.798 234.684Z" fill="#E6E8EA"/>
<g opacity="0.6">
<path d="M161.029 233.739C160.889 234.489 160.812 235.265 160.812 236.061C160.812 242.261 165.285 247.287 170.803 247.287H172.663C178.181 247.287 182.654 242.261 182.654 236.061C182.654 235.265 182.578 234.489 182.438 233.739H161.029Z" fill="#C6CAD0"/>
<path d="M171.995 234.918C168.651 234.918 165.931 232.515 165.931 229.563V221.303C165.931 218.35 168.652 215.949 171.995 215.949C175.339 215.949 178.06 218.351 178.06 221.303V229.563C178.06 232.516 175.34 234.918 171.995 234.918ZM171.995 218.306C169.954 218.306 168.293 219.651 168.293 221.303V229.563C168.293 231.217 169.954 232.561 171.995 232.561C174.037 232.561 175.697 231.216 175.697 229.563V221.303C175.697 219.651 174.037 218.306 171.995 218.306Z" fill="#C6CAD0"/>
<path d="M163.714 216.283C164.738 217.118 165.762 217.954 166.787 218.79C167.664 219.505 168.925 218.262 168.04 217.54C167.015 216.704 165.992 215.868 164.967 215.032C164.091 214.317 162.829 215.56 163.714 216.283Z" fill="#C6CAD0"/>
<path d="M179.679 215.53C178.733 216.453 177.786 217.376 176.839 218.298C176.021 219.096 177.275 220.345 178.092 219.549C179.039 218.625 179.985 217.702 180.932 216.781C181.749 215.982 180.497 214.733 179.679 215.53Z" fill="#C6CAD0"/>
<path d="M174.591 213.374C174.424 214.474 174.256 215.575 174.089 216.676C174.017 217.151 174.202 217.624 174.708 217.764C175.132 217.879 175.726 217.623 175.798 217.146C175.965 216.046 176.133 214.944 176.3 213.844C176.372 213.368 176.187 212.895 175.681 212.756C175.257 212.641 174.664 212.897 174.591 213.374Z" fill="#C6CAD0"/>
<path d="M169.123 212.964C169.366 214.05 169.609 215.137 169.852 216.223C170.101 217.335 171.809 216.863 171.561 215.753C171.317 214.666 171.075 213.58 170.832 212.494C170.583 211.381 168.874 211.853 169.123 212.964Z" fill="#C6CAD0"/>
<path d="M160.641 222.688C162.281 223.124 163.92 223.56 165.559 223.996C166.665 224.29 167.134 222.584 166.03 222.291C164.391 221.855 162.752 221.419 161.112 220.983C160.007 220.69 159.538 222.395 160.641 222.688Z" fill="#C6CAD0"/>
<path d="M178.271 223.635C179.627 223.46 180.983 223.286 182.34 223.111C183.457 222.967 183.471 221.197 182.34 221.343C180.984 221.518 179.628 221.692 178.271 221.867C177.154 222.011 177.14 223.781 178.271 223.635Z" fill="#C6CAD0"/>
<path d="M177.465 228.48C179.19 228.668 180.914 228.857 182.639 229.046C183.773 229.171 183.762 227.401 182.639 227.279C180.914 227.09 179.19 226.901 177.465 226.712C176.331 226.588 176.342 228.357 177.465 228.48Z" fill="#C6CAD0"/>
<path d="M166.344 227.029C164.339 227.195 162.333 227.361 160.328 227.528C159.198 227.621 159.188 229.39 160.328 229.295C162.333 229.129 164.339 228.963 166.344 228.797C167.474 228.703 167.483 226.934 166.344 227.029Z" fill="#C6CAD0"/>
</g>
<path d="M324.926 246.79H314.164L313.376 231.027H325.714L324.926 246.79Z" fill="#C7CBD1"/>
<path d="M319.366 218.325H320.853V231.027H319.366V218.325Z" fill="#E6E8EA"/>
<path d="M376.901 247.288H362.298L360.622 221.179H378.577L376.901 247.288ZM363.776 245.716H375.423L376.897 222.75H362.302L363.776 245.716Z" fill="#E6E8EA"/>
<g opacity="0.5">
<path d="M376.95 237.286H362.25L361.462 228.856H377.738L376.95 237.286Z" fill="#C7CBD1"/>
</g>
<path d="M378.657 221.153H360.724L362.907 219.722H376.885L378.657 221.153Z" fill="#E6E8EA"/>
<path d="M374.593 219.722H364.608L365.91 218.838H373.617L374.593 219.722Z" fill="#E6E8EA"/>
<g opacity="0.6">
<path d="M385.35 240.312H418.688V246.404H385.35V240.312Z" fill="#C6CAD0"/>
</g>
<path d="M389.287 235.461H421.312V240.332H389.287V235.461Z" fill="#E6E8EA"/>
<path d="M88.9545 279.911H139.526V317.223H88.9545V279.911Z" fill="#C6CAD0"/>
<path d="M84.5114 279.911H143.969V289.114H84.5114V279.911Z" fill="#C6CAD0"/>
<path d="M125.669 295.083C125.669 296.345 125.058 297.367 124.304 297.367H104.177C103.422 297.367 102.812 296.345 102.812 295.083C102.812 293.822 103.423 292.799 104.177 292.799H124.304C125.058 292.799 125.669 293.821 125.669 295.083Z" fill="#F5F5F5"/>
<g opacity="0.5">
<path d="M140.208 289.114L88.9545 292.256V289.114H140.208Z" fill="#95A9BC"/>
</g>
<path d="M87.7795 317.223H143.969V358.679H87.7795V317.223Z" fill="#C6CAD0"/>
<path d="M82.8427 317.223H148.906V327.447H82.8427V317.223Z" fill="#C6CAD0"/>
<path d="M128.573 334.079C128.573 335.481 127.894 336.616 127.056 336.616H104.693C103.855 336.616 103.177 335.481 103.177 334.079C103.177 332.678 103.855 331.541 104.693 331.541H127.056C127.894 331.542 128.573 332.678 128.573 334.079Z" fill="#F5F5F5"/>
<g opacity="0.5">
<path d="M140.208 317.223L82.8427 320.365V317.223H140.208Z" fill="#95A9BC"/>
</g>
<g opacity="0.5">
<path d="M144.009 327.447L87.7795 330.59V327.447H144.009Z" fill="#95A9BC"/>
</g>
<g opacity="0.5">
<path d="M157.612 116.738L74.6621 119.881V116.738H157.612Z" fill="#95A9BC"/>
</g>
<path d="M74.1368 110.846H157.612V116.739H74.1368V110.846Z" fill="#E6E8EA"/>
<path d="M83.7616 112.369L77.019 111.416L83.675 64.5442L90.4176 65.4973L83.7616 112.369ZM79.6895 109.412L81.7535 109.705L87.7464 67.5016L85.6823 67.2093L79.6895 109.412Z" fill="#E6E8EA"/>
<path d="M93.118 112.369L84.9312 111.212L90.4476 72.3629L98.6344 73.5202L93.118 112.369ZM87.6016 109.208L91.1099 109.704L95.964 75.5238L92.4557 75.028L87.6016 109.208Z" fill="#E6E8EA"/>
<path d="M99.914 113L91.891 111.003L102.932 66.8558L110.954 68.8531L99.914 113ZM94.7551 109.287L98.1934 110.143L108.09 70.5706L104.652 69.7142L94.7551 109.287Z" fill="#E6E8EA"/>
<path d="M119.024 112.897H108.787V65.1751H119.024V112.897ZM111.149 110.54H116.662V67.5323H111.149V110.54Z" fill="#E6E8EA"/>
<path d="M128.606 112.317H120.206V67.1064H128.606V112.317ZM122.568 109.96H126.243V69.4636H122.568V109.96Z" fill="#E6E8EA"/>
<g opacity="0.5">
<path d="M158.16 185.119L36.4376 190.725V185.119H158.16Z" fill="#95A9BC"/>
</g>
<path d="M36.4376 179.226H158.16V185.119H36.4376V179.226Z" fill="#E6E8EA"/>
<path d="M59.3286 181.619H42.5226V136.408H59.3294V181.619H59.3286ZM44.8851 179.262H56.9669V138.765H44.8851V179.262Z" fill="#E6E8EA"/>
<path d="M75.1708 184.027H65.5862V138.816H75.1708V184.027V184.027ZM67.9487 181.67H72.8083V141.173H67.9487V181.67Z" fill="#E6E8EA"/>
<path d="M125.479 178.819H77.4923V160.244H125.479V178.819H125.479ZM79.8548 176.462H123.117V162.601H79.8548V176.462V176.462Z" fill="#E6E8EA"/>
<g opacity="0.6">
<path d="M140.602 231.42H113.513V222.097H140.602V231.42ZM114.299 230.634H139.813V222.882H114.299V230.634Z" fill="#C6CAD0"/>
<path d="M129.419 240.376H102.33V231.053H129.419V240.376ZM103.117 239.591H128.631V231.839H103.117V239.591Z" fill="#C6CAD0"/>
</g>
<path d="M388.736 290.698H369.493V283.458H388.736V290.698ZM370.281 289.912H387.948V284.244H370.281V289.912Z" fill="#C6CAD0"/>
<path d="M380.89 297.468H361.647V290.228H380.89V297.468ZM362.434 296.682H380.103V291.013H362.434V296.682Z" fill="#C6CAD0"/>
<path d="M64.4702 294.082H45.2277V286.842H64.4702V294.082ZM46.0152 293.296H63.6827V287.628H46.0152V293.296Z" fill="#C6CAD0"/>
<path d="M56.6245 300.852H37.3811V293.612H56.6245V300.852ZM38.1686 300.066H55.837V294.398H38.1686V300.066Z" fill="#C6CAD0"/>
<path d="M261.78 107.359H242.537V100.119H261.78V107.359ZM243.325 106.573H260.992V100.905H243.325V106.573Z" fill="#C6CAD0"/>
<path d="M253.934 114.129H234.691V106.889H253.934V114.129ZM235.479 113.343H253.147V107.675H235.479V113.343Z" fill="#C6CAD0"/>
<path d="M540.543 307.97H521.301V300.73H540.543V307.97ZM522.09 307.184H539.756V301.516H522.09V307.184Z" fill="#C6CAD0"/>
<path d="M548.391 314.74H529.147V307.5H548.391V314.74ZM529.936 313.955H547.604V308.286H529.936V313.955Z" fill="#C6CAD0"/>
<path d="M155.322 147.897H136.08V140.657H155.322V147.897ZM136.868 147.111H154.535V141.443H136.868V147.111Z" fill="#C6CAD0"/>
<path d="M163.169 154.668H143.926V147.428H163.169V154.668ZM144.714 153.882H162.383V148.214H144.714V153.882Z" fill="#C6CAD0"/>
<path d="M432.225 228.741H514.349V358.728H432.225V228.741Z" fill="#E6E8EA"/>
<g opacity="0.6">
<path d="M509.467 266.734H436.815V232.057H509.467V266.734ZM437.604 265.948H508.68V232.843H437.604V265.948Z" fill="#C6CAD0"/>
</g>
<g opacity="0.6">
<path d="M509.683 310.854H437.031V276.178H509.683V310.854ZM437.819 310.069H508.895V276.963H437.819V310.069Z" fill="#C6CAD0"/>
</g>
<g opacity="0.6">
<path d="M509.467 353.714H436.815V319.038H509.467V353.714ZM437.604 352.929H508.68V319.823H437.604V352.929Z" fill="#C6CAD0"/>
</g>
<g opacity="0.5">
<path d="M475.308 248.71C475.308 249.513 474.989 250.282 474.42 250.849C473.852 251.417 473.08 251.736 472.276 251.736C471.472 251.736 470.701 251.417 470.132 250.849C469.564 250.282 469.244 249.513 469.244 248.71C469.244 247.908 469.564 247.139 470.132 246.572C470.701 246.004 471.472 245.685 472.276 245.685C473.08 245.685 473.852 246.004 474.42 246.572C474.989 247.139 475.308 247.908 475.308 248.71V248.71Z" fill="#8092A0"/>
</g>
<g opacity="0.5">
<path d="M475.308 294.649C475.308 295.451 474.989 296.221 474.42 296.788C473.852 297.355 473.08 297.674 472.276 297.674C471.472 297.674 470.701 297.355 470.132 296.788C469.564 296.221 469.244 295.451 469.244 294.649C469.244 293.847 469.564 293.077 470.132 292.51C470.701 291.943 471.472 291.624 472.276 291.624C473.08 291.624 473.852 291.943 474.42 292.51C474.989 293.077 475.308 293.847 475.308 294.649V294.649Z" fill="#8092A0"/>
</g>
<g opacity="0.5">
<path d="M475.636 338.259C475.636 339.061 475.316 339.83 474.748 340.398C474.179 340.965 473.408 341.284 472.604 341.284C471.8 341.284 471.029 340.965 470.46 340.398C469.891 339.83 469.572 339.061 469.572 338.259C469.572 337.456 469.891 336.687 470.46 336.12C471.029 335.552 471.8 335.234 472.604 335.234C473.408 335.234 474.179 335.552 474.748 336.12C475.316 336.687 475.636 337.456 475.636 338.259Z" fill="#8092A0"/>
</g>
<path d="M476.096 247.827C476.096 248.63 475.776 249.399 475.208 249.966C474.639 250.534 473.868 250.852 473.064 250.852C472.26 250.852 471.489 250.534 470.92 249.966C470.351 249.399 470.032 248.63 470.032 247.827C470.032 247.025 470.351 246.256 470.92 245.688C471.489 245.121 472.26 244.802 473.064 244.802C473.868 244.802 474.639 245.121 475.208 245.688C475.776 246.256 476.096 247.025 476.096 247.827Z" fill="#DFE1E5"/>
<path d="M476.319 293.516C476.319 294.318 476 295.088 475.431 295.655C474.863 296.222 474.092 296.541 473.287 296.541C472.483 296.541 471.712 296.222 471.144 295.655C470.575 295.088 470.256 294.318 470.256 293.516C470.256 292.714 470.575 291.944 471.144 291.377C471.712 290.81 472.483 290.491 473.287 290.491C474.092 290.491 474.863 290.81 475.431 291.377C476 291.944 476.319 292.714 476.319 293.516V293.516Z" fill="#DFE1E5"/>
<path d="M476.319 337.045C476.319 337.848 476 338.617 475.431 339.184C474.863 339.752 474.092 340.07 473.287 340.07C472.483 340.07 471.712 339.752 471.144 339.184C470.575 338.617 470.256 337.848 470.256 337.045C470.256 336.243 470.575 335.474 471.144 334.906C471.712 334.339 472.483 334.02 473.287 334.02C474.092 334.02 474.863 334.339 475.431 334.906C476 335.474 476.319 336.243 476.319 337.045V337.045Z" fill="#DFE1E5"/>
<g opacity="0.5">
<path d="M509.227 266.717V267.781L437.21 269.484V266.538L509.227 266.717Z" fill="#95A9BC"/>
</g>
<g opacity="0.5">
<path d="M509.364 310.64V311.704L437.348 313.407V310.461L509.364 310.64Z" fill="#95A9BC"/>
</g>
<g opacity="0.5">
<path d="M509.15 353.5V354.565L437.133 356.267V353.322L509.15 353.5Z" fill="#95A9BC"/>
</g>
<path d="M498.854 220.272C498.854 224.611 496.108 228.129 492.718 228.129H454.984C451.595 228.129 448.848 224.611 448.848 220.272V216.317C448.848 211.978 451.595 208.46 454.984 208.46H492.718C496.108 208.46 498.854 211.978 498.854 216.317V220.272Z" fill="#C6CAD0"/>
<path d="M459.939 190.781H488.552V210.234H459.939V190.781Z" fill="#F5F5F5"/>
<g opacity="0.5">
<path d="M457.314 210.232H490.389V211.602H457.314V210.232Z" fill="#95A9BC"/>
</g>
</svg>
