<svg width="165" height="56" viewBox="0 0 165 56" fill="none" xmlns="http://www.w3.org/2000/svg">
<path d="M8.82601 26.2721C7.17135 26.2721 5.69801 25.9888 4.40601 25.4221C3.11401 24.8554 2.09401 24.0848 1.34601 23.1101C0.598013 22.1128 0.178679 21.0021 0.0880127 19.7781H5.83401C5.90201 20.4354 6.20801 20.9681 6.75201 21.3761C7.29601 21.7841 7.96468 21.9881 8.75801 21.9881C9.48335 21.9881 10.0387 21.8521 10.424 21.5801C10.832 21.2854 11.036 20.9114 11.036 20.4581C11.036 19.9141 10.7527 19.5174 10.186 19.2681C9.61935 18.9961 8.70135 18.7014 7.43201 18.3841C6.07201 18.0668 4.93868 17.7381 4.03201 17.3981C3.12535 17.0354 2.34335 16.4801 1.68601 15.7321C1.02868 14.9614 0.700013 13.9301 0.700013 12.6381C0.700013 11.5501 0.994679 10.5641 1.58401 9.68009C2.19601 8.77342 3.08001 8.05942 4.23601 7.53809C5.41468 7.01675 6.80868 6.75609 8.41801 6.75609C10.798 6.75609 12.668 7.34542 14.028 8.52409C15.4107 9.70275 16.204 11.2668 16.408 13.2161H11.036C10.9453 12.5588 10.6507 12.0374 10.152 11.6521C9.67601 11.2668 9.04135 11.0741 8.24801 11.0741C7.56801 11.0741 7.04668 11.2101 6.68401 11.4821C6.32135 11.7314 6.14001 12.0828 6.14001 12.5361C6.14001 13.0801 6.42335 13.4881 6.99001 13.7601C7.57935 14.0321 8.48601 14.3041 9.71001 14.5761C11.1153 14.9388 12.26 15.3014 13.144 15.6641C14.028 16.0041 14.7987 16.5708 15.456 17.3641C16.136 18.1348 16.4873 19.1774 16.51 20.4921C16.51 21.6028 16.1927 22.6001 15.558 23.4841C14.946 24.3454 14.0507 25.0254 12.872 25.5241C11.716 26.0228 10.3673 26.2721 8.82601 26.2721Z" fill="white"/>
<path d="M37.951 16.2081C37.951 16.7521 37.917 17.3188 37.849 17.9081H24.691C24.7817 19.0868 25.1557 19.9934 25.813 20.6281C26.493 21.2401 27.3203 21.5461 28.295 21.5461C29.7457 21.5461 30.7543 20.9341 31.321 19.7101H37.509C37.1917 20.9568 36.6137 22.0788 35.775 23.0761C34.959 24.0734 33.9277 24.8554 32.681 25.4221C31.4343 25.9888 30.0403 26.2721 28.499 26.2721C26.6403 26.2721 24.9857 25.8754 23.535 25.0821C22.0843 24.2888 20.951 23.1554 20.135 21.6821C19.319 20.2088 18.911 18.4861 18.911 16.5141C18.911 14.5421 19.3077 12.8194 20.101 11.3461C20.917 9.87275 22.0503 8.73942 23.501 7.94609C24.9517 7.15275 26.6177 6.75609 28.499 6.75609C30.335 6.75609 31.967 7.14142 33.395 7.91209C34.823 8.68275 35.9337 9.78209 36.727 11.2101C37.543 12.6381 37.951 14.3041 37.951 16.2081ZM32.001 14.6781C32.001 13.6808 31.661 12.8874 30.981 12.2981C30.301 11.7088 29.451 11.4141 28.431 11.4141C27.4563 11.4141 26.629 11.6974 25.949 12.2641C25.2917 12.8308 24.8837 13.6354 24.725 14.6781H32.001Z" fill="white"/>
<path d="M46.8322 9.71409C47.3988 8.83009 48.1808 8.11609 49.1782 7.57209C50.1755 7.02809 51.3428 6.75609 52.6802 6.75609C54.2442 6.75609 55.6608 7.15275 56.9302 7.94609C58.1995 8.73942 59.1968 9.87275 59.9222 11.3461C60.6702 12.8194 61.0442 14.5308 61.0442 16.4801C61.0442 18.4294 60.6702 20.1521 59.9222 21.6481C59.1968 23.1214 58.1995 24.2661 56.9302 25.0821C55.6608 25.8754 54.2442 26.2721 52.6802 26.2721C51.3655 26.2721 50.1982 26.0001 49.1782 25.4561C48.1808 24.9121 47.3988 24.2094 46.8322 23.3481V35.0441H41.0182V7.02809H46.8322V9.71409ZM55.1282 16.4801C55.1282 15.0294 54.7202 13.8961 53.9042 13.0801C53.1108 12.2414 52.1248 11.8221 50.9462 11.8221C49.7902 11.8221 48.8042 12.2414 47.9882 13.0801C47.1948 13.9188 46.7982 15.0634 46.7982 16.5141C46.7982 17.9648 47.1948 19.1094 47.9882 19.9481C48.8042 20.7868 49.7902 21.2061 50.9462 21.2061C52.1022 21.2061 53.0882 20.7868 53.9042 19.9481C54.7202 19.0868 55.1282 17.9308 55.1282 16.4801Z" fill="white"/>
<path d="M81.9783 16.2081C81.9783 16.7521 81.9443 17.3188 81.8763 17.9081H68.7183C68.809 19.0868 69.183 19.9934 69.8403 20.6281C70.5203 21.2401 71.3477 21.5461 72.3223 21.5461C73.773 21.5461 74.7817 20.9341 75.3483 19.7101H81.5363C81.219 20.9568 80.641 22.0788 79.8023 23.0761C78.9863 24.0734 77.955 24.8554 76.7083 25.4221C75.4617 25.9888 74.0677 26.2721 72.5263 26.2721C70.6677 26.2721 69.013 25.8754 67.5623 25.0821C66.1117 24.2888 64.9783 23.1554 64.1623 21.6821C63.3463 20.2088 62.9383 18.4861 62.9383 16.5141C62.9383 14.5421 63.335 12.8194 64.1283 11.3461C64.9443 9.87275 66.0777 8.73942 67.5283 7.94609C68.979 7.15275 70.645 6.75609 72.5263 6.75609C74.3623 6.75609 75.9943 7.14142 77.4223 7.91209C78.8503 8.68275 79.961 9.78209 80.7543 11.2101C81.5704 12.6381 81.9783 14.3041 81.9783 16.2081ZM76.0283 14.6781C76.0283 13.6808 75.6883 12.8874 75.0083 12.2981C74.3283 11.7088 73.4783 11.4141 72.4583 11.4141C71.4837 11.4141 70.6563 11.6974 69.9763 12.2641C69.319 12.8308 68.911 13.6354 68.7523 14.6781H76.0283Z" fill="white"/>
<path d="M96.7075 6.82409C98.8835 6.82409 100.629 7.54942 101.944 9.00009C103.258 10.4281 103.916 12.4001 103.916 14.9161V26.0001H98.1355V15.6981C98.1355 14.4288 97.8068 13.4428 97.1495 12.7401C96.4922 12.0374 95.6082 11.6861 94.4975 11.6861C93.3868 11.6861 92.5028 12.0374 91.8455 12.7401C91.1882 13.4428 90.8595 14.4288 90.8595 15.6981V26.0001H85.0455V0.840088H90.8595V9.57809C91.4488 8.73942 92.2535 8.07075 93.2735 7.57209C94.2935 7.07342 95.4382 6.82409 96.7075 6.82409Z" fill="white"/>
<path d="M113.77 10.1901C114.45 9.14742 115.3 8.33142 116.32 7.74209C117.34 7.13009 118.473 6.82409 119.72 6.82409V12.9781H118.122C116.671 12.9781 115.583 13.2954 114.858 13.9301C114.132 14.5421 113.77 15.6301 113.77 17.1941V26.0001H107.956V7.02809H113.77V10.1901Z" fill="white"/>
<path d="M121.343 16.4801C121.343 14.5308 121.705 12.8194 122.431 11.3461C123.179 9.87275 124.187 8.73942 125.457 7.94609C126.726 7.15275 128.143 6.75609 129.707 6.75609C131.044 6.75609 132.211 7.02809 133.209 7.57209C134.229 8.11609 135.011 8.83009 135.555 9.71409V7.02809H141.369V26.0001H135.555V23.3141C134.988 24.1981 134.195 24.9121 133.175 25.4561C132.177 26.0001 131.01 26.2721 129.673 26.2721C128.131 26.2721 126.726 25.8754 125.457 25.0821C124.187 24.2661 123.179 23.1214 122.431 21.6481C121.705 20.1521 121.343 18.4294 121.343 16.4801ZM135.555 16.5141C135.555 15.0634 135.147 13.9188 134.331 13.0801C133.537 12.2414 132.563 11.8221 131.407 11.8221C130.251 11.8221 129.265 12.2414 128.449 13.0801C127.655 13.8961 127.259 15.0294 127.259 16.4801C127.259 17.9308 127.655 19.0868 128.449 19.9481C129.265 20.7868 130.251 21.2061 131.407 21.2061C132.563 21.2061 133.537 20.7868 134.331 19.9481C135.147 19.1094 135.555 17.9648 135.555 16.5141Z" fill="white"/>
<path d="M157.135 6.82409C159.356 6.82409 161.124 7.54942 162.439 9.00009C163.776 10.4281 164.445 12.4001 164.445 14.9161V26.0001H158.665V15.6981C158.665 14.4288 158.336 13.4428 157.679 12.7401C157.021 12.0374 156.137 11.6861 155.027 11.6861C153.916 11.6861 153.032 12.0374 152.375 12.7401C151.717 13.4428 151.389 14.4288 151.389 15.6981V26.0001H145.575V7.02809H151.389V9.54409C151.978 8.70542 152.771 8.04809 153.769 7.57209C154.766 7.07342 155.888 6.82409 157.135 6.82409Z" fill="white"/>
<path d="M4.29201 41.8681C4.83335 41.1214 5.57068 40.5148 6.50401 40.0481C7.45601 39.5628 8.51068 39.3201 9.66801 39.3201C11.0307 39.3201 12.2627 39.6468 13.364 40.3001C14.4653 40.9534 15.3333 41.8868 15.968 43.1001C16.6027 44.2948 16.92 45.6668 16.92 47.2161C16.92 48.7654 16.6027 50.1561 15.968 51.3881C15.3333 52.6014 14.456 53.5534 13.336 54.2441C12.2347 54.9161 11.012 55.2521 9.66801 55.2521C8.47335 55.2521 7.40935 55.0188 6.47601 54.5521C5.56135 54.0854 4.83335 53.4881 4.29201 52.7601V55.0001H1.10001V34.2801H4.29201V41.8681ZM13.672 47.2161C13.672 46.1521 13.448 45.2374 13 44.4721C12.5707 43.6881 11.992 43.1001 11.264 42.7081C10.5547 42.2974 9.78935 42.0921 8.96801 42.0921C8.16535 42.0921 7.40001 42.2974 6.67201 42.7081C5.96268 43.1188 5.38401 43.7161 4.93601 44.5001C4.50668 45.2841 4.29201 46.2081 4.29201 47.2721C4.29201 48.3361 4.50668 49.2694 4.93601 50.0721C5.38401 50.8561 5.96268 51.4534 6.67201 51.8641C7.40001 52.2748 8.16535 52.4801 8.96801 52.4801C9.78935 52.4801 10.5547 52.2748 11.264 51.8641C11.992 51.4348 12.5707 50.8188 13 50.0161C13.448 49.2134 13.672 48.2801 13.672 47.2161Z" fill="white"/>
<path d="M20.0206 47.2161C20.0206 45.6668 20.3379 44.2948 20.9726 43.1001C21.6259 41.9054 22.5032 40.9814 23.6046 40.3281C24.7246 39.6561 25.9566 39.3201 27.3006 39.3201C28.5139 39.3201 29.5686 39.5628 30.4646 40.0481C31.3792 40.5148 32.1072 41.1028 32.6486 41.8121V39.5721H35.8686V55.0001H32.6486V52.7041C32.1072 53.4321 31.3699 54.0388 30.4366 54.5241C29.5032 55.0094 28.4392 55.2521 27.2446 55.2521C25.9192 55.2521 24.7059 54.9161 23.6046 54.2441C22.5032 53.5534 21.6259 52.6014 20.9726 51.3881C20.3379 50.1561 20.0206 48.7654 20.0206 47.2161ZM32.6486 47.2721C32.6486 46.2081 32.4246 45.2841 31.9766 44.5001C31.5472 43.7161 30.9779 43.1188 30.2686 42.7081C29.5592 42.2974 28.7939 42.0921 27.9726 42.0921C27.1512 42.0921 26.3859 42.2974 25.6766 42.7081C24.9672 43.1001 24.3886 43.6881 23.9406 44.4721C23.5112 45.2374 23.2966 46.1521 23.2966 47.2161C23.2966 48.2801 23.5112 49.2134 23.9406 50.0161C24.3886 50.8188 24.9672 51.4348 25.6766 51.8641C26.4046 52.2748 27.1699 52.4801 27.9726 52.4801C28.7939 52.4801 29.5592 52.2748 30.2686 51.8641C30.9779 51.4534 31.5472 50.8561 31.9766 50.0721C32.4246 49.2694 32.6486 48.3361 32.6486 47.2721Z" fill="white"/>
<path d="M44.2611 41.8681C44.8025 41.1214 45.5398 40.5148 46.4731 40.0481C47.4251 39.5628 48.4798 39.3201 49.6371 39.3201C50.9998 39.3201 52.2318 39.6468 53.3331 40.3001C54.4345 40.9534 55.3025 41.8868 55.9371 43.1001C56.5718 44.2948 56.8891 45.6668 56.8891 47.2161C56.8891 48.7654 56.5718 50.1561 55.9371 51.3881C55.3025 52.6014 54.4251 53.5534 53.3051 54.2441C52.2038 54.9161 50.9811 55.2521 49.6371 55.2521C48.4425 55.2521 47.3785 55.0188 46.4451 54.5521C45.5305 54.0854 44.8025 53.4881 44.2611 52.7601V55.0001H41.0691V34.2801H44.2611V41.8681ZM53.6411 47.2161C53.6411 46.1521 53.4171 45.2374 52.9691 44.4721C52.5398 43.6881 51.9611 43.1001 51.2331 42.7081C50.5238 42.2974 49.7585 42.0921 48.9371 42.0921C48.1345 42.0921 47.3691 42.2974 46.6411 42.7081C45.9318 43.1188 45.3531 43.7161 44.9051 44.5001C44.4758 45.2841 44.2611 46.2081 44.2611 47.2721C44.2611 48.3361 44.4758 49.2694 44.9051 50.0721C45.3531 50.8561 45.9318 51.4534 46.6411 51.8641C47.3691 52.2748 48.1345 52.4801 48.9371 52.4801C49.7585 52.4801 50.5238 52.2748 51.2331 51.8641C51.9611 51.4348 52.5398 50.8188 52.9691 50.0161C53.4171 49.2134 53.6411 48.2801 53.6411 47.2161Z" fill="white"/>
<path d="M59.9897 47.2161C59.9897 45.6668 60.307 44.2948 60.9417 43.1001C61.595 41.9054 62.4724 40.9814 63.5737 40.3281C64.6937 39.6561 65.9257 39.3201 67.2697 39.3201C68.483 39.3201 69.5377 39.5628 70.4337 40.0481C71.3484 40.5148 72.0764 41.1028 72.6177 41.8121V39.5721H75.8377V55.0001H72.6177V52.7041C72.0764 53.4321 71.339 54.0388 70.4057 54.5241C69.4724 55.0094 68.4084 55.2521 67.2137 55.2521C65.8884 55.2521 64.675 54.9161 63.5737 54.2441C62.4724 53.5534 61.595 52.6014 60.9417 51.3881C60.307 50.1561 59.9897 48.7654 59.9897 47.2161ZM72.6177 47.2721C72.6177 46.2081 72.3937 45.2841 71.9457 44.5001C71.5164 43.7161 70.947 43.1188 70.2377 42.7081C69.5284 42.2974 68.763 42.0921 67.9417 42.0921C67.1204 42.0921 66.355 42.2974 65.6457 42.7081C64.9364 43.1001 64.3577 43.6881 63.9097 44.4721C63.4804 45.2374 63.2657 46.1521 63.2657 47.2161C63.2657 48.2801 63.4804 49.2134 63.9097 50.0161C64.3577 50.8188 64.9364 51.4348 65.6457 51.8641C66.3737 52.2748 67.139 52.4801 67.9417 52.4801C68.763 52.4801 69.5284 52.2748 70.2377 51.8641C70.947 51.4534 71.5164 50.8561 71.9457 50.0721C72.3937 49.2694 72.6177 48.3361 72.6177 47.2721Z" fill="white"/>
<path d="M95.1783 46.9081C95.1783 47.4868 95.1409 48.0094 95.0663 48.4761H83.2783C83.3716 49.7081 83.8289 50.6974 84.6503 51.4441C85.4716 52.1908 86.4796 52.5641 87.6743 52.5641C89.3916 52.5641 90.6049 51.8454 91.3143 50.4081H94.7583C94.2916 51.8268 93.4423 52.9934 92.2103 53.9081C90.9969 54.8041 89.4849 55.2521 87.6743 55.2521C86.1996 55.2521 84.8743 54.9254 83.6983 54.2721C82.5409 53.6001 81.6263 52.6668 80.9543 51.4721C80.3009 50.2588 79.9743 48.8588 79.9743 47.2721C79.9743 45.6854 80.2916 44.2948 80.9263 43.1001C81.5796 41.8868 82.4849 40.9534 83.6423 40.3001C84.8183 39.6468 86.1623 39.3201 87.6743 39.3201C89.1303 39.3201 90.4276 39.6374 91.5663 40.2721C92.7049 40.9068 93.5916 41.8028 94.2263 42.9601C94.8609 44.0988 95.1783 45.4148 95.1783 46.9081ZM91.8463 45.9001C91.8276 44.7241 91.4076 43.7814 90.5863 43.0721C89.7649 42.3628 88.7476 42.0081 87.5343 42.0081C86.4329 42.0081 85.4903 42.3628 84.7063 43.0721C83.9223 43.7628 83.4556 44.7054 83.3063 45.9001H91.8463Z" fill="white"/>
<path d="M100.952 37.5281C100.373 37.5281 99.8875 37.3321 99.4955 36.9401C99.1035 36.5481 98.9075 36.0628 98.9075 35.4841C98.9075 34.9054 99.1035 34.4201 99.4955 34.0281C99.8875 33.6361 100.373 33.4401 100.952 33.4401C101.512 33.4401 101.988 33.6361 102.38 34.0281C102.772 34.4201 102.968 34.9054 102.968 35.4841C102.968 36.0628 102.772 36.5481 102.38 36.9401C101.988 37.3321 101.512 37.5281 100.952 37.5281ZM102.52 39.5721V55.0001H99.3275V39.5721H102.52Z" fill="white"/>
</svg>
