<svg width="471" height="145" viewBox="0 0 471 145" fill="none" xmlns="http://www.w3.org/2000/svg">
<path d="M24.728 94.768C18.712 94.768 13.784 93.392 9.94403 90.64C6.16803 87.824 4.05603 84.016 3.60803 79.216H10.52C10.84 82.16 12.216 84.56 14.648 86.416C17.144 88.208 20.472 89.104 24.632 89.104C28.28 89.104 31.128 88.24 33.176 86.512C35.288 84.784 36.344 82.64 36.344 80.08C36.344 78.288 35.768 76.816 34.616 75.664C33.464 74.512 31.992 73.616 30.2 72.976C28.472 72.272 26.104 71.536 23.096 70.768C19.192 69.744 16.024 68.72 13.592 67.696C11.16 66.672 9.08003 65.168 7.35203 63.184C5.68803 61.136 4.85603 58.416 4.85603 55.024C4.85603 52.464 5.62403 50.096 7.16003 47.92C8.69603 45.744 10.872 44.016 13.688 42.736C16.504 41.456 19.704 40.816 23.288 40.816C28.92 40.816 33.464 42.256 36.92 45.136C40.376 47.952 42.232 51.856 42.488 56.848H35.768C35.576 53.776 34.36 51.312 32.12 49.456C29.944 47.536 26.936 46.576 23.096 46.576C19.704 46.576 16.952 47.376 14.84 48.976C12.728 50.576 11.672 52.56 11.672 54.928C11.672 56.976 12.28 58.672 13.496 60.016C14.776 61.296 16.344 62.32 18.2 63.088C20.056 63.792 22.552 64.592 25.688 65.488C29.464 66.512 32.472 67.504 34.712 68.464C36.952 69.424 38.872 70.832 40.472 72.688C42.072 74.544 42.904 77.008 42.968 80.08C42.968 82.896 42.2 85.424 40.664 87.664C39.128 89.84 36.984 91.568 34.232 92.848C31.48 94.128 28.312 94.768 24.728 94.768Z" fill="black"/>
<path d="M106.498 65.104C106.498 67.408 106.434 69.168 106.306 70.384H62.8175C63.0095 74.352 63.9695 77.744 65.6975 80.56C67.4255 83.376 69.6975 85.52 72.5135 86.992C75.3295 88.4 78.4015 89.104 81.7295 89.104C86.0815 89.104 89.7295 88.048 92.6735 85.936C95.6815 83.824 97.6655 80.976 98.6255 77.392H105.73C104.45 82.512 101.698 86.704 97.4735 89.968C93.3135 93.168 88.0655 94.768 81.7295 94.768C76.8015 94.768 72.3855 93.68 68.4815 91.504C64.5775 89.264 61.5055 86.128 59.2655 82.096C57.0895 78 56.0015 73.232 56.0015 67.792C56.0015 62.352 57.0895 57.584 59.2655 53.488C61.4415 49.392 64.4815 46.256 68.3855 44.08C72.2895 41.904 76.7375 40.816 81.7295 40.816C86.7215 40.816 91.0735 41.904 94.7855 44.08C98.5615 46.256 101.442 49.2 103.426 52.912C105.474 56.56 106.498 60.624 106.498 65.104ZM99.6815 64.912C99.7455 61.008 98.9455 57.68 97.2815 54.928C95.6815 52.176 93.4735 50.096 90.6575 48.688C87.8415 47.28 84.7695 46.576 81.4415 46.576C76.4495 46.576 72.1935 48.176 68.6735 51.376C65.1535 54.576 63.2015 59.088 62.8175 64.912H99.6815Z" fill="black"/>
<path d="M128.872 53.104C130.536 49.584 133.16 46.672 136.744 44.368C140.392 42 144.712 40.816 149.704 40.816C154.44 40.816 158.696 41.936 162.472 44.176C166.312 46.352 169.288 49.488 171.4 53.584C173.576 57.616 174.664 62.32 174.664 67.696C174.664 73.072 173.576 77.808 171.4 81.904C169.288 86 166.312 89.168 162.472 91.408C158.696 93.648 154.44 94.768 149.704 94.768C144.776 94.768 140.488 93.616 136.84 91.312C133.192 88.944 130.536 86 128.872 82.48V118.768H122.248V41.584H128.872V53.104ZM167.848 67.696C167.848 63.344 166.984 59.6 165.256 56.464C163.592 53.264 161.288 50.832 158.344 49.168C155.4 47.504 152.072 46.672 148.36 46.672C144.776 46.672 141.48 47.536 138.472 49.264C135.528 50.992 133.192 53.456 131.464 56.656C129.736 59.856 128.872 63.568 128.872 67.792C128.872 72.016 129.736 75.728 131.464 78.928C133.192 82.128 135.528 84.592 138.472 86.32C141.48 88.048 144.776 88.912 148.36 88.912C152.072 88.912 155.4 88.08 158.344 86.416C161.288 84.688 163.592 82.224 165.256 79.024C166.984 75.76 167.848 71.984 167.848 67.696Z" fill="black"/>
<path d="M237.91 65.104C237.91 67.408 237.846 69.168 237.718 70.384H194.23C194.422 74.352 195.382 77.744 197.11 80.56C198.838 83.376 201.11 85.52 203.926 86.992C206.742 88.4 209.814 89.104 213.142 89.104C217.494 89.104 221.142 88.048 224.086 85.936C227.094 83.824 229.078 80.976 230.038 77.392H237.142C235.862 82.512 233.11 86.704 228.886 89.968C224.726 93.168 219.478 94.768 213.142 94.768C208.214 94.768 203.798 93.68 199.894 91.504C195.99 89.264 192.918 86.128 190.678 82.096C188.502 78 187.414 73.232 187.414 67.792C187.414 62.352 188.502 57.584 190.678 53.488C192.854 49.392 195.894 46.256 199.798 44.08C203.702 41.904 208.15 40.816 213.142 40.816C218.134 40.816 222.486 41.904 226.198 44.08C229.974 46.256 232.854 49.2 234.838 52.912C236.886 56.56 237.91 60.624 237.91 65.104ZM231.094 64.912C231.158 61.008 230.358 57.68 228.694 54.928C227.094 52.176 224.886 50.096 222.07 48.688C219.254 47.28 216.182 46.576 212.854 46.576C207.862 46.576 203.606 48.176 200.086 51.376C196.566 54.576 194.614 59.088 194.23 64.912H231.094Z" fill="black"/>
<path d="M278.62 40.624C282.588 40.624 286.14 41.456 289.276 43.12C292.476 44.784 294.972 47.344 296.764 50.8C298.62 54.192 299.548 58.352 299.548 63.28V94H292.924V64.048C292.924 58.352 291.484 54 288.604 50.992C285.788 47.984 281.916 46.48 276.988 46.48C271.932 46.48 267.9 48.08 264.892 51.28C261.884 54.48 260.38 59.184 260.38 65.392V94H253.66V22.96H260.38V50.512C262.044 47.376 264.476 44.944 267.676 43.216C270.94 41.488 274.588 40.624 278.62 40.624Z" fill="black"/>
<path d="M324.586 50.896C326.058 47.632 328.298 45.104 331.306 43.312C334.378 41.52 338.122 40.624 342.538 40.624V47.632H340.714C335.85 47.632 331.946 48.944 329.002 51.568C326.058 54.192 324.586 58.576 324.586 64.72V94H317.866V41.584H324.586V50.896Z" fill="black"/>
<path d="M353.032 67.696C353.032 62.32 354.088 57.616 356.2 53.584C358.376 49.488 361.352 46.352 365.128 44.176C368.968 41.936 373.288 40.816 378.088 40.816C383.08 40.816 387.368 41.968 390.952 44.272C394.6 46.576 397.224 49.52 398.824 53.104V41.584H405.544V94H398.824V82.384C397.16 85.968 394.504 88.944 390.856 91.312C387.272 93.616 382.984 94.768 377.992 94.768C373.256 94.768 368.968 93.648 365.128 91.408C361.352 89.168 358.376 86 356.2 81.904C354.088 77.808 353.032 73.072 353.032 67.696ZM398.824 67.792C398.824 63.568 397.96 59.856 396.232 56.656C394.504 53.456 392.136 50.992 389.128 49.264C386.184 47.536 382.92 46.672 379.336 46.672C375.624 46.672 372.296 47.504 369.352 49.168C366.408 50.832 364.072 53.264 362.344 56.464C360.68 59.6 359.848 63.344 359.848 67.696C359.848 71.984 360.68 75.76 362.344 79.024C364.072 82.224 366.408 84.688 369.352 86.416C372.296 88.08 375.624 88.912 379.336 88.912C382.92 88.912 386.184 88.048 389.128 86.32C392.136 84.592 394.504 82.128 396.232 78.928C397.96 75.728 398.824 72.016 398.824 67.792Z" fill="black"/>
<path d="M448.917 40.624C455.189 40.624 460.309 42.576 464.277 46.48C468.245 50.32 470.229 55.92 470.229 63.28V94H463.605V64.048C463.605 58.352 462.165 54 459.285 50.992C456.469 47.984 452.597 46.48 447.669 46.48C442.613 46.48 438.581 48.08 435.573 51.28C432.565 54.48 431.061 59.184 431.061 65.392V94H424.341V41.584H431.061V50.512C432.725 47.312 435.125 44.88 438.261 43.216C441.397 41.488 444.949 40.624 448.917 40.624Z" fill="black"/>
<path d="M2.30001 0.622009V16H0.76001V0.622009H2.30001Z" fill="black"/>
<path d="M15.4894 12.348H8.49335L7.15135 16H5.52335L11.1334 0.820009H12.8714L18.4594 16H16.8314L15.4894 12.348ZM15.0274 11.072L11.9914 2.75601L8.95535 11.072H15.0274Z" fill="black"/>
<path d="M36.7489 0.820009V16H35.2089V3.87801L29.7969 16H28.6749L23.2629 3.92201V16H21.7229V0.820009H23.3509L29.2249 13.976L35.0989 0.820009H36.7489Z" fill="black"/>
<path d="M291.35 124C292.183 121.8 293.6 120 295.6 118.6C297.6 117.2 300.017 116.5 302.85 116.5C305.383 116.5 307.633 117.067 309.6 118.2C311.6 119.333 313.15 120.95 314.25 123.05C315.383 125.15 315.95 127.6 315.95 130.4C315.95 133.2 315.383 135.667 314.25 137.8C313.15 139.9 311.6 141.533 309.6 142.7C307.633 143.833 305.383 144.4 302.85 144.4C300.017 144.4 297.583 143.7 295.55 142.3C293.55 140.9 292.15 139.1 291.35 136.9V144H289.1V107H291.35V124ZM313.65 130.4C313.65 127.933 313.183 125.8 312.25 124C311.317 122.2 310 120.833 308.3 119.9C306.633 118.933 304.7 118.45 302.5 118.45C300.4 118.45 298.5 118.95 296.8 119.95C295.1 120.917 293.767 122.317 292.8 124.15C291.833 125.95 291.35 128.033 291.35 130.4C291.35 132.8 291.833 134.917 292.8 136.75C293.767 138.55 295.1 139.95 296.8 140.95C298.5 141.917 300.4 142.4 302.5 142.4C304.7 142.4 306.633 141.917 308.3 140.95C310 139.983 311.317 138.6 312.25 136.8C313.183 135 313.65 132.867 313.65 130.4Z" fill="black"/>
<path d="M323.143 130.4C323.143 127.6 323.693 125.15 324.793 123.05C325.926 120.95 327.476 119.333 329.443 118.2C331.443 117.067 333.709 116.5 336.243 116.5C339.109 116.5 341.543 117.2 343.543 118.6C345.543 120 346.943 121.783 347.743 123.95V116.85H349.993V144H347.743V136.85C346.943 139.05 345.526 140.867 343.493 142.3C341.493 143.7 339.076 144.4 336.243 144.4C333.709 144.4 331.443 143.833 329.443 142.7C327.476 141.533 325.926 139.9 324.793 137.8C323.693 135.667 323.143 133.2 323.143 130.4ZM347.743 130.4C347.743 128.033 347.243 125.95 346.243 124.15C345.276 122.317 343.943 120.917 342.243 119.95C340.543 118.95 338.643 118.45 336.543 118.45C334.343 118.45 332.409 118.933 330.743 119.9C329.076 120.833 327.776 122.2 326.843 124C325.909 125.8 325.443 127.933 325.443 130.4C325.443 132.867 325.909 135 326.843 136.8C327.776 138.6 329.076 139.983 330.743 140.95C332.443 141.917 334.376 142.4 336.543 142.4C338.643 142.4 340.543 141.917 342.243 140.95C343.976 139.95 345.326 138.55 346.293 136.75C347.259 134.917 347.743 132.8 347.743 130.4Z" fill="black"/>
<path d="M362.235 124C363.068 121.8 364.485 120 366.485 118.6C368.485 117.2 370.902 116.5 373.735 116.5C376.268 116.5 378.518 117.067 380.485 118.2C382.485 119.333 384.035 120.95 385.135 123.05C386.268 125.15 386.835 127.6 386.835 130.4C386.835 133.2 386.268 135.667 385.135 137.8C384.035 139.9 382.485 141.533 380.485 142.7C378.518 143.833 376.268 144.4 373.735 144.4C370.902 144.4 368.468 143.7 366.435 142.3C364.435 140.9 363.035 139.1 362.235 136.9V144H359.985V107H362.235V124ZM384.535 130.4C384.535 127.933 384.068 125.8 383.135 124C382.202 122.2 380.885 120.833 379.185 119.9C377.518 118.933 375.585 118.45 373.385 118.45C371.285 118.45 369.385 118.95 367.685 119.95C365.985 120.917 364.652 122.317 363.685 124.15C362.718 125.95 362.235 128.033 362.235 130.4C362.235 132.8 362.718 134.917 363.685 136.75C364.652 138.55 365.985 139.95 367.685 140.95C369.385 141.917 371.285 142.4 373.385 142.4C375.585 142.4 377.518 141.917 379.185 140.95C380.885 139.983 382.202 138.6 383.135 136.8C384.068 135 384.535 132.867 384.535 130.4Z" fill="black"/>
<path d="M394.028 130.4C394.028 127.6 394.578 125.15 395.678 123.05C396.811 120.95 398.361 119.333 400.328 118.2C402.328 117.067 404.594 116.5 407.128 116.5C409.994 116.5 412.428 117.2 414.428 118.6C416.428 120 417.828 121.783 418.628 123.95V116.85H420.878V144H418.628V136.85C417.828 139.05 416.411 140.867 414.378 142.3C412.378 143.7 409.961 144.4 407.128 144.4C404.594 144.4 402.328 143.833 400.328 142.7C398.361 141.533 396.811 139.9 395.678 137.8C394.578 135.667 394.028 133.2 394.028 130.4ZM418.628 130.4C418.628 128.033 418.128 125.95 417.128 124.15C416.161 122.317 414.828 120.917 413.128 119.95C411.428 118.95 409.528 118.45 407.428 118.45C405.228 118.45 403.294 118.933 401.628 119.9C399.961 120.833 398.661 122.2 397.728 124C396.794 125.8 396.328 127.933 396.328 130.4C396.328 132.867 396.794 135 397.728 136.8C398.661 138.6 399.961 139.983 401.628 140.95C403.328 141.917 405.261 142.4 407.428 142.4C409.528 142.4 411.428 141.917 413.128 140.95C414.861 139.95 416.211 138.55 417.178 136.75C418.144 134.917 418.628 132.8 418.628 130.4Z" fill="black"/>
<path d="M455.32 128.6C455.32 129.8 455.287 130.7 455.22 131.3H431.77C431.837 133.733 432.37 135.783 433.37 137.45C434.37 139.117 435.687 140.367 437.32 141.2C438.954 142.033 440.737 142.45 442.67 142.45C445.337 142.45 447.57 141.8 449.37 140.5C451.17 139.167 452.304 137.367 452.77 135.1H455.12C454.587 137.867 453.22 140.117 451.02 141.85C448.82 143.55 446.037 144.4 442.67 144.4C440.137 144.4 437.87 143.833 435.87 142.7C433.87 141.567 432.304 139.95 431.17 137.85C430.037 135.717 429.47 133.233 429.47 130.4C429.47 127.567 430.02 125.1 431.12 123C432.254 120.9 433.82 119.3 435.82 118.2C437.82 117.067 440.104 116.5 442.67 116.5C445.27 116.5 447.52 117.067 449.42 118.2C451.354 119.3 452.82 120.783 453.82 122.65C454.82 124.483 455.32 126.467 455.32 128.6ZM453.07 129.45C453.17 127.05 452.737 125.017 451.77 123.35C450.837 121.683 449.554 120.45 447.92 119.65C446.287 118.817 444.52 118.4 442.62 118.4C440.72 118.4 438.954 118.817 437.32 119.65C435.72 120.45 434.404 121.683 433.37 123.35C432.37 125.017 431.837 127.05 431.77 129.45H453.07Z" fill="black"/>
<path d="M465.07 110.8C464.537 110.8 464.087 110.633 463.72 110.3C463.354 109.933 463.17 109.45 463.17 108.85C463.17 108.283 463.354 107.817 463.72 107.45C464.087 107.083 464.537 106.9 465.07 106.9C465.604 106.9 466.054 107.083 466.42 107.45C466.787 107.817 466.97 108.283 466.97 108.85C466.97 109.45 466.787 109.933 466.42 110.3C466.054 110.633 465.604 110.8 465.07 110.8ZM466.17 116.85V144H463.92V116.85H466.17Z" fill="black"/>
</svg>
