<svg width="165" height="55" viewBox="0 0 165 55" fill="none" xmlns="http://www.w3.org/2000/svg">
<path d="M8.82601 25.432C7.17135 25.432 5.69801 25.1487 4.40601 24.582C3.11401 24.0153 2.09401 23.2447 1.34601 22.27C0.598013 21.2727 0.178679 20.162 0.0880127 18.938H5.83401C5.90201 19.5953 6.20801 20.128 6.75201 20.536C7.29601 20.944 7.96468 21.148 8.75801 21.148C9.48335 21.148 10.0387 21.012 10.424 20.74C10.832 20.4453 11.036 20.0713 11.036 19.618C11.036 19.074 10.7527 18.6773 10.186 18.428C9.61935 18.156 8.70135 17.8613 7.43201 17.544C6.07201 17.2267 4.93868 16.898 4.03201 16.558C3.12535 16.1953 2.34335 15.64 1.68601 14.892C1.02868 14.1213 0.700013 13.09 0.700013 11.798C0.700013 10.71 0.994679 9.724 1.58401 8.84C2.19601 7.93333 3.08001 7.21933 4.23601 6.698C5.41468 6.17667 6.80868 5.916 8.41801 5.916C10.798 5.916 12.668 6.50533 14.028 7.684C15.4107 8.86267 16.204 10.4267 16.408 12.376H11.036C10.9453 11.7187 10.6507 11.1973 10.152 10.812C9.67601 10.4267 9.04135 10.234 8.24801 10.234C7.56801 10.234 7.04668 10.37 6.68401 10.642C6.32135 10.8913 6.14001 11.2427 6.14001 11.696C6.14001 12.24 6.42335 12.648 6.99001 12.92C7.57935 13.192 8.48601 13.464 9.71001 13.736C11.1153 14.0987 12.26 14.4613 13.144 14.824C14.028 15.164 14.7987 15.7307 15.456 16.524C16.136 17.2947 16.4873 18.3373 16.51 19.652C16.51 20.7627 16.1927 21.76 15.558 22.644C14.946 23.5053 14.0507 24.1853 12.872 24.684C11.716 25.1827 10.3673 25.432 8.82601 25.432Z" fill="black"/>
<path d="M37.951 15.368C37.951 15.912 37.917 16.4787 37.849 17.068H24.691C24.7817 18.2467 25.1557 19.1533 25.813 19.788C26.493 20.4 27.3203 20.706 28.295 20.706C29.7457 20.706 30.7543 20.094 31.321 18.87H37.509C37.1917 20.1167 36.6137 21.2387 35.775 22.236C34.959 23.2333 33.9277 24.0153 32.681 24.582C31.4343 25.1487 30.0403 25.432 28.499 25.432C26.6403 25.432 24.9857 25.0353 23.535 24.242C22.0843 23.4487 20.951 22.3153 20.135 20.842C19.319 19.3687 18.911 17.646 18.911 15.674C18.911 13.702 19.3077 11.9793 20.101 10.506C20.917 9.03267 22.0503 7.89933 23.501 7.106C24.9517 6.31267 26.6177 5.916 28.499 5.916C30.335 5.916 31.967 6.30133 33.395 7.072C34.823 7.84267 35.9337 8.942 36.727 10.37C37.543 11.798 37.951 13.464 37.951 15.368ZM32.001 13.838C32.001 12.8407 31.661 12.0473 30.981 11.458C30.301 10.8687 29.451 10.574 28.431 10.574C27.4563 10.574 26.629 10.8573 25.949 11.424C25.2917 11.9907 24.8837 12.7953 24.725 13.838H32.001Z" fill="black"/>
<path d="M46.8322 8.874C47.3988 7.99 48.1808 7.276 49.1782 6.732C50.1755 6.188 51.3428 5.916 52.6802 5.916C54.2442 5.916 55.6608 6.31267 56.9302 7.106C58.1995 7.89933 59.1968 9.03267 59.9222 10.506C60.6702 11.9793 61.0442 13.6907 61.0442 15.64C61.0442 17.5893 60.6702 19.312 59.9222 20.808C59.1968 22.2813 58.1995 23.426 56.9302 24.242C55.6608 25.0353 54.2442 25.432 52.6802 25.432C51.3655 25.432 50.1982 25.16 49.1782 24.616C48.1808 24.072 47.3988 23.3693 46.8322 22.508V34.204H41.0182V6.188H46.8322V8.874ZM55.1282 15.64C55.1282 14.1893 54.7202 13.056 53.9042 12.24C53.1108 11.4013 52.1248 10.982 50.9462 10.982C49.7902 10.982 48.8042 11.4013 47.9882 12.24C47.1948 13.0787 46.7982 14.2233 46.7982 15.674C46.7982 17.1247 47.1948 18.2693 47.9882 19.108C48.8042 19.9467 49.7902 20.366 50.9462 20.366C52.1022 20.366 53.0882 19.9467 53.9042 19.108C54.7202 18.2467 55.1282 17.0907 55.1282 15.64Z" fill="black"/>
<path d="M81.9783 15.368C81.9783 15.912 81.9443 16.4787 81.8763 17.068H68.7183C68.809 18.2467 69.183 19.1533 69.8403 19.788C70.5203 20.4 71.3477 20.706 72.3223 20.706C73.773 20.706 74.7817 20.094 75.3483 18.87H81.5363C81.219 20.1167 80.641 21.2387 79.8023 22.236C78.9863 23.2333 77.955 24.0153 76.7083 24.582C75.4617 25.1487 74.0677 25.432 72.5263 25.432C70.6677 25.432 69.013 25.0353 67.5623 24.242C66.1117 23.4487 64.9783 22.3153 64.1623 20.842C63.3463 19.3687 62.9383 17.646 62.9383 15.674C62.9383 13.702 63.335 11.9793 64.1283 10.506C64.9443 9.03267 66.0777 7.89933 67.5283 7.106C68.979 6.31267 70.645 5.916 72.5263 5.916C74.3623 5.916 75.9943 6.30133 77.4223 7.072C78.8503 7.84267 79.961 8.942 80.7543 10.37C81.5703 11.798 81.9783 13.464 81.9783 15.368ZM76.0283 13.838C76.0283 12.8407 75.6883 12.0473 75.0083 11.458C74.3283 10.8687 73.4783 10.574 72.4583 10.574C71.4837 10.574 70.6563 10.8573 69.9763 11.424C69.319 11.9907 68.911 12.7953 68.7523 13.838H76.0283Z" fill="black"/>
<path d="M96.7075 5.984C98.8835 5.984 100.629 6.70933 101.944 8.16C103.258 9.588 103.916 11.56 103.916 14.076V25.16H98.1355V14.858C98.1355 13.5887 97.8068 12.6027 97.1495 11.9C96.4922 11.1973 95.6082 10.846 94.4975 10.846C93.3868 10.846 92.5028 11.1973 91.8455 11.9C91.1882 12.6027 90.8595 13.5887 90.8595 14.858V25.16H85.0455V0H90.8595V8.738C91.4488 7.89933 92.2535 7.23067 93.2735 6.732C94.2935 6.23333 95.4382 5.984 96.7075 5.984Z" fill="black"/>
<path d="M113.77 9.35C114.45 8.30733 115.3 7.49133 116.32 6.902C117.34 6.29 118.473 5.984 119.72 5.984V12.138H118.122C116.671 12.138 115.583 12.4553 114.858 13.09C114.132 13.702 113.77 14.79 113.77 16.354V25.16H107.956V6.188H113.77V9.35Z" fill="black"/>
<path d="M121.343 15.64C121.343 13.6907 121.705 11.9793 122.431 10.506C123.179 9.03267 124.187 7.89933 125.457 7.106C126.726 6.31267 128.143 5.916 129.707 5.916C131.044 5.916 132.211 6.188 133.209 6.732C134.229 7.276 135.011 7.99 135.555 8.874V6.188H141.369V25.16H135.555V22.474C134.988 23.358 134.195 24.072 133.175 24.616C132.177 25.16 131.01 25.432 129.673 25.432C128.131 25.432 126.726 25.0353 125.457 24.242C124.187 23.426 123.179 22.2813 122.431 20.808C121.705 19.312 121.343 17.5893 121.343 15.64ZM135.555 15.674C135.555 14.2233 135.147 13.0787 134.331 12.24C133.537 11.4013 132.563 10.982 131.407 10.982C130.251 10.982 129.265 11.4013 128.449 12.24C127.655 13.056 127.259 14.1893 127.259 15.64C127.259 17.0907 127.655 18.2467 128.449 19.108C129.265 19.9467 130.251 20.366 131.407 20.366C132.563 20.366 133.537 19.9467 134.331 19.108C135.147 18.2693 135.555 17.1247 135.555 15.674Z" fill="black"/>
<path d="M157.135 5.984C159.356 5.984 161.124 6.70933 162.439 8.16C163.776 9.588 164.445 11.56 164.445 14.076V25.16H158.665V14.858C158.665 13.5887 158.336 12.6027 157.679 11.9C157.021 11.1973 156.137 10.846 155.027 10.846C153.916 10.846 153.032 11.1973 152.375 11.9C151.717 12.6027 151.389 13.5887 151.389 14.858V25.16H145.575V6.188H151.389V8.704C151.978 7.86533 152.771 7.208 153.769 6.732C154.766 6.23333 155.888 5.984 157.135 5.984Z" fill="black"/>
<path d="M4.29201 41.028C4.83335 40.2813 5.57068 39.6747 6.50401 39.208C7.45601 38.7227 8.51068 38.48 9.66801 38.48C11.0307 38.48 12.2627 38.8067 13.364 39.46C14.4653 40.1133 15.3333 41.0467 15.968 42.26C16.6027 43.4547 16.92 44.8267 16.92 46.376C16.92 47.9253 16.6027 49.316 15.968 50.548C15.3333 51.7613 14.456 52.7133 13.336 53.404C12.2347 54.076 11.012 54.412 9.66801 54.412C8.47335 54.412 7.40935 54.1787 6.47601 53.712C5.56135 53.2453 4.83335 52.648 4.29201 51.92V54.16H1.10001V33.44H4.29201V41.028ZM13.672 46.376C13.672 45.312 13.448 44.3973 13 43.632C12.5707 42.848 11.992 42.26 11.264 41.868C10.5547 41.4573 9.78935 41.252 8.96801 41.252C8.16535 41.252 7.40001 41.4573 6.67201 41.868C5.96268 42.2787 5.38401 42.876 4.93601 43.66C4.50668 44.444 4.29201 45.368 4.29201 46.432C4.29201 47.496 4.50668 48.4293 4.93601 49.232C5.38401 50.016 5.96268 50.6133 6.67201 51.024C7.40001 51.4347 8.16535 51.64 8.96801 51.64C9.78935 51.64 10.5547 51.4347 11.264 51.024C11.992 50.5947 12.5707 49.9787 13 49.176C13.448 48.3733 13.672 47.44 13.672 46.376Z" fill="black"/>
<path d="M20.0206 46.376C20.0206 44.8267 20.3379 43.4547 20.9726 42.26C21.6259 41.0653 22.5032 40.1413 23.6046 39.488C24.7246 38.816 25.9566 38.48 27.3006 38.48C28.5139 38.48 29.5686 38.7227 30.4646 39.208C31.3792 39.6747 32.1072 40.2627 32.6486 40.972V38.732H35.8686V54.16H32.6486V51.864C32.1072 52.592 31.3699 53.1987 30.4366 53.684C29.5032 54.1693 28.4392 54.412 27.2446 54.412C25.9192 54.412 24.7059 54.076 23.6046 53.404C22.5032 52.7133 21.6259 51.7613 20.9726 50.548C20.3379 49.316 20.0206 47.9253 20.0206 46.376ZM32.6486 46.432C32.6486 45.368 32.4246 44.444 31.9766 43.66C31.5472 42.876 30.9779 42.2787 30.2686 41.868C29.5592 41.4573 28.7939 41.252 27.9726 41.252C27.1512 41.252 26.3859 41.4573 25.6766 41.868C24.9672 42.26 24.3886 42.848 23.9406 43.632C23.5112 44.3973 23.2966 45.312 23.2966 46.376C23.2966 47.44 23.5112 48.3733 23.9406 49.176C24.3886 49.9787 24.9672 50.5947 25.6766 51.024C26.4046 51.4347 27.1699 51.64 27.9726 51.64C28.7939 51.64 29.5592 51.4347 30.2686 51.024C30.9779 50.6133 31.5472 50.016 31.9766 49.232C32.4246 48.4293 32.6486 47.496 32.6486 46.432Z" fill="black"/>
<path d="M44.2611 41.028C44.8025 40.2813 45.5398 39.6747 46.4731 39.208C47.4251 38.7227 48.4798 38.48 49.6371 38.48C50.9998 38.48 52.2318 38.8067 53.3331 39.46C54.4345 40.1133 55.3025 41.0467 55.9371 42.26C56.5718 43.4547 56.8891 44.8267 56.8891 46.376C56.8891 47.9253 56.5718 49.316 55.9371 50.548C55.3025 51.7613 54.4251 52.7133 53.3051 53.404C52.2038 54.076 50.9811 54.412 49.6371 54.412C48.4425 54.412 47.3785 54.1787 46.4451 53.712C45.5305 53.2453 44.8025 52.648 44.2611 51.92V54.16H41.0691V33.44H44.2611V41.028ZM53.6411 46.376C53.6411 45.312 53.4171 44.3973 52.9691 43.632C52.5398 42.848 51.9611 42.26 51.2331 41.868C50.5238 41.4573 49.7585 41.252 48.9371 41.252C48.1345 41.252 47.3691 41.4573 46.6411 41.868C45.9318 42.2787 45.3531 42.876 44.9051 43.66C44.4758 44.444 44.2611 45.368 44.2611 46.432C44.2611 47.496 44.4758 48.4293 44.9051 49.232C45.3531 50.016 45.9318 50.6133 46.6411 51.024C47.3691 51.4347 48.1345 51.64 48.9371 51.64C49.7585 51.64 50.5238 51.4347 51.2331 51.024C51.9611 50.5947 52.5398 49.9787 52.9691 49.176C53.4171 48.3733 53.6411 47.44 53.6411 46.376Z" fill="black"/>
<path d="M59.9897 46.376C59.9897 44.8267 60.307 43.4547 60.9417 42.26C61.595 41.0653 62.4724 40.1413 63.5737 39.488C64.6937 38.816 65.9257 38.48 67.2697 38.48C68.483 38.48 69.5377 38.7227 70.4337 39.208C71.3484 39.6747 72.0764 40.2627 72.6177 40.972V38.732H75.8377V54.16H72.6177V51.864C72.0764 52.592 71.339 53.1987 70.4057 53.684C69.4724 54.1693 68.4084 54.412 67.2137 54.412C65.8884 54.412 64.675 54.076 63.5737 53.404C62.4724 52.7133 61.595 51.7613 60.9417 50.548C60.307 49.316 59.9897 47.9253 59.9897 46.376ZM72.6177 46.432C72.6177 45.368 72.3937 44.444 71.9457 43.66C71.5164 42.876 70.947 42.2787 70.2377 41.868C69.5284 41.4573 68.763 41.252 67.9417 41.252C67.1204 41.252 66.355 41.4573 65.6457 41.868C64.9364 42.26 64.3577 42.848 63.9097 43.632C63.4804 44.3973 63.2657 45.312 63.2657 46.376C63.2657 47.44 63.4804 48.3733 63.9097 49.176C64.3577 49.9787 64.9364 50.5947 65.6457 51.024C66.3737 51.4347 67.139 51.64 67.9417 51.64C68.763 51.64 69.5284 51.4347 70.2377 51.024C70.947 50.6133 71.5164 50.016 71.9457 49.232C72.3937 48.4293 72.6177 47.496 72.6177 46.432Z" fill="black"/>
<path d="M95.1783 46.068C95.1783 46.6467 95.1409 47.1693 95.0663 47.636H83.2783C83.3716 48.868 83.8289 49.8573 84.6503 50.604C85.4716 51.3507 86.4796 51.724 87.6743 51.724C89.3916 51.724 90.6049 51.0053 91.3143 49.568H94.7583C94.2916 50.9867 93.4423 52.1533 92.2103 53.068C90.9969 53.964 89.4849 54.412 87.6743 54.412C86.1996 54.412 84.8743 54.0853 83.6983 53.432C82.5409 52.76 81.6263 51.8267 80.9543 50.632C80.3009 49.4187 79.9743 48.0187 79.9743 46.432C79.9743 44.8453 80.2916 43.4547 80.9263 42.26C81.5796 41.0467 82.4849 40.1133 83.6423 39.46C84.8183 38.8067 86.1623 38.48 87.6743 38.48C89.1303 38.48 90.4276 38.7973 91.5663 39.432C92.7049 40.0667 93.5916 40.9627 94.2263 42.12C94.8609 43.2587 95.1783 44.5747 95.1783 46.068ZM91.8463 45.06C91.8276 43.884 91.4076 42.9413 90.5863 42.232C89.7649 41.5227 88.7476 41.168 87.5343 41.168C86.4329 41.168 85.4903 41.5227 84.7063 42.232C83.9223 42.9227 83.4556 43.8653 83.3063 45.06H91.8463Z" fill="black"/>
<path d="M100.952 36.688C100.373 36.688 99.8875 36.492 99.4955 36.1C99.1035 35.708 98.9075 35.2227 98.9075 34.644C98.9075 34.0653 99.1035 33.58 99.4955 33.188C99.8875 32.796 100.373 32.6 100.952 32.6C101.512 32.6 101.988 32.796 102.38 33.188C102.772 33.58 102.968 34.0653 102.968 34.644C102.968 35.2227 102.772 35.708 102.38 36.1C101.988 36.492 101.512 36.688 100.952 36.688ZM102.52 38.732V54.16H99.3275V38.732H102.52Z" fill="black"/>
</svg>
